<?xml version="1.0" encoding="UTF-8" standalone="no"?>
<svg
   xmlns:dc="http://purl.org/dc/elements/1.1/"
   xmlns:cc="http://creativecommons.org/ns#"
   xmlns:rdf="http://www.w3.org/1999/02/22-rdf-syntax-ns#"
   xmlns:svg="http://www.w3.org/2000/svg"
   xmlns="http://www.w3.org/2000/svg"
   xmlns:sodipodi="http://sodipodi.sourceforge.net/DTD/sodipodi-0.dtd"
   xmlns:inkscape="http://www.inkscape.org/namespaces/inkscape"
   inkscape:version="1.0 (4035a4f, 2020-05-01)"
   inkscape:export-ydpi="240"
   inkscape:export-xdpi="240"
   inkscape:export-filename="/Users/lukasz/studies/CookBook/diagrams/out/client-generator-deserializer/Deserializer.png"
   sodipodi:docname="Deserializer.svg"
   id="svg657"
   zoomAndPan="magnify"
   width="630px"
   viewBox="0 0 630 804"
   version="1.1"
   style="width:630px;height:804px;"
   preserveAspectRatio="none"
   height="804px"
   contentStyleType="text/css"
   contentScriptType="application/ecmascript">
  <metadata
     id="metadata661">
    <rdf:RDF>
      <cc:Work
         rdf:about="">
        <dc:format>image/svg+xml</dc:format>
        <dc:type
           rdf:resource="http://purl.org/dc/dcmitype/StillImage" />
      </cc:Work>
    </rdf:RDF>
  </metadata>
  <sodipodi:namedview
     inkscape:current-layer="g655"
     inkscape:window-maximized="1"
     inkscape:window-y="23"
     inkscape:window-x="0"
     inkscape:cy="402"
     inkscape:cx="118.10204"
     inkscape:zoom="0.9141791"
     showgrid="false"
     id="namedview659"
     inkscape:window-height="1004"
     inkscape:window-width="1792"
     inkscape:pageshadow="2"
     inkscape:pageopacity="0"
     guidetolerance="10"
     gridtolerance="10"
     objecttolerance="10"
     borderopacity="1"
     bordercolor="#666666"
     pagecolor="#ffffff" />
  <defs
     id="defs496">
    <filter
       y="-1"
       x="-1"
       width="300%"
       id="f138lrknsbzko4"
       height="300%">
      <feGaussianBlur
         id="feGaussianBlur487"
         stdDeviation="2.0"
         result="blurOut" />
      <feColorMatrix
         id="feColorMatrix489"
         values="0 0 0 0 0 0 0 0 0 0 0 0 0 0 0 0 0 0 .4 0"
         type="matrix"
         result="blurOut2"
         in="blurOut" />
      <feOffset
         id="feOffset491"
         result="blurOut3"
         in="blurOut2"
         dy="4.0"
         dx="4.0" />
      <feBlend
         id="feBlend493"
         mode="normal"
         in2="blurOut3"
         in="SourceGraphic" />
    </filter>
  </defs>
  <g
     id="g655">
    <!--MD5=[79d7e7c92bbbfb5b97f9b85faad553aa]
cluster Deserializer-->
    <polygon
       id="polygon498"
       style="stroke:#000000;stroke-width:1.5"
       points="121,46.4883 608,46.4883 608,792 22,792 22,24 114,24 "
       filter="url(#f138lrknsbzko4)"
       fill="#ffffff" />
    <line
       id="line500"
       y2="46.4883"
       y1="46.4883"
       x2="121"
       x1="22"
       style="stroke: #000000; stroke-width: 1.5;" />
    <text
       id="text502"
       y="39.5352"
       x="26"
       textLength="86"
       lengthAdjust="spacingAndGlyphs"
       font-weight="bold"
       font-size="14"
       font-family="sans-serif"
       fill="#000000">Deserializer</text>
    <!--MD5=[07e49d1285a14244ff360cc91be5d60b]
class Deserializer.OpenApiModel-->
    <rect
       y="275"
       x="38"
       width="232"
       style="stroke: #A80036; stroke-width: 1.5;"
       id="Deserializer.OpenApiModel"
       height="73.9102"
       filter="url(#f138lrknsbzko4)"
       fill="#FEFECE" />
    <ellipse
       id="ellipse505"
       style="stroke: #A80036; stroke-width: 1.0;"
       ry="11"
       rx="11"
       fill="#ADD1B2"
       cy="291"
       cx="107.25" />
    <path
       id="path507"
       d="M109.7231,297.1431 Q109.1421,297.4419 108.5029,297.5913 Q107.8638,297.7407 107.1582,297.7407 Q104.6514,297.7407 103.3315,296.0889 Q102.0117,294.437 102.0117,291.3159 Q102.0117,288.1865 103.3315,286.5347 Q104.6514,284.8828 107.1582,284.8828 Q107.8638,284.8828 108.5112,285.0322 Q109.1587,285.1816 109.7231,285.4805 L109.7231,288.2031 Q109.0923,287.6221 108.4988,287.3523 Q107.9053,287.0825 107.2744,287.0825 Q105.9297,287.0825 105.2449,288.1492 Q104.5601,289.2158 104.5601,291.3159 Q104.5601,293.4077 105.2449,294.4744 Q105.9297,295.541 107.2744,295.541 Q107.9053,295.541 108.4988,295.2712 Q109.0923,295.0015 109.7231,294.4204 Z " />
    <text
       id="text509"
       y="295.5352"
       x="127.75"
       textLength="85"
       lengthAdjust="spacingAndGlyphs"
       font-size="12"
       font-family="sans-serif"
       fill="#000000">OpenApiModel</text>
    <line
       id="line511"
       y2="307"
       y1="307"
       x2="269"
       x1="39"
       style="stroke: #A80036; stroke-width: 1.5;" />
    <line
       id="line513"
       y2="315"
       y1="315"
       x2="269"
       x1="39"
       style="stroke: #A80036; stroke-width: 1.5;" />
    <ellipse
       id="ellipse515"
       style="stroke: #038048; stroke-width: 1.0;"
       ry="3"
       rx="3"
       fill="#84BE84"
       cy="326"
       cx="49" />
    <text
       id="text517"
       y="329.6348"
       x="58"
       textLength="206"
       lengthAdjust="spacingAndGlyphs"
       font-size="11"
       font-family="sans-serif"
       fill="#000000">Endpoints() : IEnumerable&lt;IEndpoint&gt;</text>
    <ellipse
       id="ellipse519"
       style="stroke: #038048; stroke-width: 1.0;"
       ry="3"
       rx="3"
       fill="#84BE84"
       cy="338.9551"
       cx="49" />
    <text
       id="text521"
       y="342.5898"
       x="58"
       textLength="192"
       lengthAdjust="spacingAndGlyphs"
       font-size="11"
       font-family="sans-serif"
       fill="#000000">Schemas() : IEnumerable&lt;ISchema&gt;</text>
    <!--MD5=[5d245b6ed810dcd1909b2baf00219083]
class Deserializer.IDeserializer-->
    <rect
       y="275"
       x="382.5"
       width="209"
       style="stroke: #A80036; stroke-width: 1.5;"
       id="Deserializer.IDeserializer"
       height="73.9102"
       filter="url(#f138lrknsbzko4)"
       fill="#FEFECE" />
    <ellipse
       id="ellipse524"
       style="stroke: #A80036; stroke-width: 1.0;"
       ry="11"
       rx="11"
       fill="#B4A7E5"
       cy="291"
       cx="446.75" />
    <path
       id="path526"
       d="M443.1777,287.2651 L443.1777,285.1069 L450.5571,285.1069 L450.5571,287.2651 L448.0918,287.2651 L448.0918,295.3418 L450.5571,295.3418 L450.5571,297.5 L443.1777,297.5 L443.1777,295.3418 L445.6431,295.3418 L445.6431,287.2651 Z " />
    <text
       id="text528"
       y="295.5352"
       x="467.25"
       textLength="72"
       lengthAdjust="spacingAndGlyphs"
       font-style="italic"
       font-size="12"
       font-family="sans-serif"
       fill="#000000">IDeserializer</text>
    <line
       id="line530"
       y2="307"
       y1="307"
       x2="590.5"
       x1="383.5"
       style="stroke: #A80036; stroke-width: 1.5;" />
    <line
       id="line532"
       y2="315"
       y1="315"
       x2="590.5"
       x1="383.5"
       style="stroke: #A80036; stroke-width: 1.5;" />
    <ellipse
       id="ellipse534"
       style="stroke: #038048; stroke-width: 1.0;"
       ry="3"
       rx="3"
       fill="#84BE84"
       cy="326"
       cx="393.5" />
    <text
       id="text536"
       y="329.6348"
       x="402.5"
       textLength="183"
       lengthAdjust="spacingAndGlyphs"
       font-size="11px"
       font-family="sans-serif"
       fill="#000000">Deserialize(String): OpenApiModel</text>
    <ellipse
       id="ellipse538"
       style="stroke: #038048; stroke-width: 1.0;"
       ry="3"
       rx="3"
       fill="#84BE84"
       cy="338.9551"
       cx="393.5" />
    <text
       id="text540"
       y="342.5898"
       x="402.5"
       textLength="182"
       lengthAdjust="spacingAndGlyphs"
       font-size="11"
       font-family="sans-serif"
       fill="#000000">SetSettings(JsonSerializerSettings)</text>
    <!--MD5=[d474bfa4e9a44ea3b0c7bbab74bf444a]
class Deserializer.Deserializer-->
    <rect
       y="410"
       x="326"
       width="238"
       style="stroke: #A80036; stroke-width: 1.5;"
       id="Deserializer.Deserializer"
       height="67.2207"
       filter="url(#f138lrknsbzko4)"
       fill="#FEFECE" />
    <ellipse
       id="ellipse543"
       style="stroke: #A80036; stroke-width: 1.0;"
       ry="11"
       rx="11"
       fill="#ADD1B2"
       cy="429.1328"
       cx="400.25" />
    <path
       id="path545"
       d="M402.7231,435.2759 Q402.1421,435.5747 401.5029,435.7241 Q400.8638,435.8735 400.1582,435.8735 Q397.6514,435.8735 396.3315,434.2217 Q395.0117,432.5698 395.0117,429.4487 Q395.0117,426.3193 396.3315,424.6675 Q397.6514,423.0156 400.1582,423.0156 Q400.8638,423.0156 401.5112,423.165 Q402.1587,423.3145 402.7231,423.6133 L402.7231,426.3359 Q402.0923,425.7549 401.4988,425.4851 Q400.9053,425.2153 400.2744,425.2153 Q398.9297,425.2153 398.2449,426.282 Q397.5601,427.3486 397.5601,429.4487 Q397.5601,431.5405 398.2449,432.6072 Q398.9297,433.6738 400.2744,433.6738 Q400.9053,433.6738 401.4988,433.4041 Q402.0923,433.1343 402.7231,432.5532 Z " />
    <text
       id="text547"
       y="426.6016"
       x="425.75"
       textLength="59"
       lengthAdjust="spacingAndGlyphs"
       font-style="italic"
       font-size="12"
       font-family="sans-serif"
       fill="#000000">«abstract»</text>
    <text
       id="text549"
       y="440.7344"
       x="420.75"
       textLength="69"
       lengthAdjust="spacingAndGlyphs"
       font-size="12"
       font-family="sans-serif"
       fill="#000000">Deserializer</text>
    <rect
       id="rect551"
       y="407"
       x="557"
       width="10"
       style="stroke: #000000; stroke-width: 1.0; stroke-dasharray: 2.0,2.0;"
       height="16.1328"
       fill="#FFFFFF" />
    <text
       id="text553"
       y="419.6016"
       x="558"
       textLength="8"
       lengthAdjust="spacingAndGlyphs"
       font-style="italic"
       font-size="12"
       font-family="sans-serif"
       fill="#000000">T</text>
    <line
       id="line555"
       y2="448.2656"
       y1="448.2656"
       x2="563"
       x1="327"
       style="stroke: #A80036; stroke-width: 1.5;" />
    <line
       id="line557"
       y2="456.2656"
       y1="456.2656"
       x2="563"
       x1="327"
       style="stroke: #A80036; stroke-width: 1.5;" />
    <polygon
       id="polygon559"
       style="stroke: #B38D22; stroke-width: 1.0;"
       points="337,462.2656,341,466.2656,337,470.2656,333,466.2656"
       fill="#FFFF44" />
    <text
       id="text561"
       y="470.9004"
       x="346"
       textLength="212"
       lengthAdjust="spacingAndGlyphs"
       font-size="11"
       font-family="sans-serif"
       fill="#000000">GetConverters() : IList&lt;JsonConverter&gt;</text>
    <!--MD5=[fcd196e59c159cf3a4b250a1d0e9451d]
class Deserializer.Deserializer301-->
    <rect
       y="538"
       x="134.5"
       width="457"
       style="stroke: #A80036; stroke-width: 1.5;"
       id="Deserializer.Deserializer301"
       height="151.6406"
       filter="url(#f138lrknsbzko4)"
       fill="#FEFECE" />
    <ellipse
       id="ellipse564"
       style="stroke: #A80036; stroke-width: 1.0;"
       ry="11"
       rx="11"
       fill="#ADD1B2"
       cy="554"
       cx="312.25" />
    <path
       id="path566"
       d="M314.7231,560.1431 Q314.1421,560.4419 313.5029,560.5913 Q312.8638,560.7407 312.1582,560.7407 Q309.6514,560.7407 308.3315,559.0889 Q307.0117,557.437 307.0117,554.3159 Q307.0117,551.1865 308.3315,549.5347 Q309.6514,547.8828 312.1582,547.8828 Q312.8638,547.8828 313.5112,548.0322 Q314.1587,548.1816 314.7231,548.4805 L314.7231,551.2031 Q314.0923,550.6221 313.4988,550.3523 Q312.9053,550.0825 312.2744,550.0825 Q310.9297,550.0825 310.2449,551.1492 Q309.5601,552.2158 309.5601,554.3159 Q309.5601,556.4077 310.2449,557.4744 Q310.9297,558.541 312.2744,558.541 Q312.9053,558.541 313.4988,558.2712 Q314.0923,558.0015 314.7231,557.4204 Z " />
    <text
       id="text568"
       y="558.5352"
       x="332.75"
       textLength="93"
       lengthAdjust="spacingAndGlyphs"
       font-size="12"
       font-family="sans-serif"
       fill="#000000">Deserializer301</text>
    <line
       id="line570"
       y2="570"
       y1="570"
       x2="590.5"
       x1="135.5"
       style="stroke: #A80036; stroke-width: 1.5;" />
    <line
       id="line572"
       y2="578"
       y1="578"
       x2="590.5"
       x1="135.5"
       style="stroke: #A80036; stroke-width: 1.5;" />
    <rect
       id="rect574"
       y="586"
       x="142.5"
       width="6"
       style="stroke: #C82930; stroke-width: 1.0;"
       height="6"
       fill="#F24D5C" />
    <text
       id="text576"
       y="592.63483"
       x="154.5"
       textLength="351"
       lengthAdjust="spacingAndGlyphs"
       font-size="11px"
       font-family="sans-serif"
       fill="#000000">MapSchemes(OpenApiModelBuilder, Dictionary&lt;String, Schema&gt;)</text>
    <rect
       id="rect578"
       y="598.9551"
       x="142.5"
       width="6"
       style="stroke: #C82930; stroke-width: 1.0;"
       height="6"
       fill="#F24D5C" />
    <text
       id="text580"
       y="605.5898"
       x="154.5"
       textLength="431"
       lengthAdjust="spacingAndGlyphs"
       font-size="11"
       font-family="sans-serif"
       fill="#000000">MapSecuritySchema(OpenApiModelBuilder, Dictionary&lt;string, SecurityScheme&gt;)</text>
    <rect
       id="rect582"
       y="611.9102"
       x="142.5"
       width="6"
       style="stroke: #C82930; stroke-width: 1.0;"
       height="6"
       fill="#F24D5C" />
    <text
       id="text584"
       y="618.54492"
       x="154.5"
       textLength="345"
       lengthAdjust="spacingAndGlyphs"
       font-size="11px"
       font-family="sans-serif"
       fill="#000000">MapHeaders(OpenApiModelBuilder, Dictionary&lt;String, Header&gt;)</text>
    <rect
       id="rect586"
       y="624.8652"
       x="142.5"
       width="6"
       style="stroke: #C82930; stroke-width: 1.0;"
       height="6"
       fill="#F24D5C" />
    <text
       id="text588"
       y="631.5"
       x="154.5"
       textLength="384"
       lengthAdjust="spacingAndGlyphs"
       font-size="11px"
       font-family="sans-serif"
       fill="#000000">MapRequestBodies(OpenApiModelBuilder, Dictionary&lt;String, Request&gt;)</text>
    <rect
       id="rect590"
       y="637.8203"
       x="142.5"
       width="6"
       style="stroke: #C82930; stroke-width: 1.0;"
       height="6"
       fill="#F24D5C" />
    <text
       id="text592"
       y="644.45508"
       x="154.5"
       textLength="373"
       lengthAdjust="spacingAndGlyphs"
       font-size="11px"
       font-family="sans-serif"
       fill="#000000">MapResponses(OpenApiModelBuilder, Dictionary&lt;String, Response&gt;)</text>
    <rect
       id="rect594"
       y="650.7754"
       x="142.5"
       width="6"
       style="stroke: #C82930; stroke-width: 1.0;"
       height="6"
       fill="#F24D5C" />
    <text
       id="text596"
       y="657.41022"
       x="154.5"
       textLength="377"
       lengthAdjust="spacingAndGlyphs"
       font-size="11px"
       font-family="sans-serif"
       fill="#000000">MapParameters(OpenApiModelBuilder, Dictionary&lt;String, Parameter&gt;)</text>
    <rect
       id="rect598"
       y="663.7305"
       x="142.5"
       width="6"
       style="stroke: #C82930; stroke-width: 1.0;"
       height="6"
       fill="#F24D5C" />
    <text
       id="text600"
       y="670.36517"
       x="154.5"
       textLength="363"
       lengthAdjust="spacingAndGlyphs"
       font-size="11px"
       font-family="sans-serif"
       fill="#000000">MapEndpoints(OpenApiModelBuilder, Dictionary&lt;String, PathItem&gt;)</text>
    <rect
       id="rect602"
       y="676.6855"
       x="142.5"
       width="6"
       style="stroke: #C82930; stroke-width: 1.0;"
       height="6"
       fill="#F24D5C" />
    <text
       id="text604"
       y="683.3203"
       x="154.5"
       textLength="364"
       text-decoration="underline"
       lengthAdjust="spacingAndGlyphs"
       font-size="11"
       font-family="sans-serif"
       fill="#000000">GetOperationMap(PathItem) : Dictionary&lt;EndpointType, Operation&gt;</text>
    <path
       id="path606"
       style="stroke: #A80036; stroke-width: 1.0;"
       filter="url(#f138lrknsbzko4)"
       fill="#FBFB77"
       d="M182,751 L182,776.3105 A0,0 0 0 0 182,776.3105 L544,776.3105 A0,0 0 0 0 544,776.3105 L544,761 L534,751 L367,751 L363,690.06 L359,751 L182,751 A0,0 0 0 0 182,751 " />
    <path
       id="path608"
       style="stroke: #A80036; stroke-width: 1.0;"
       fill="#FBFB77"
       d="M534,751 L534,761 L544,761 L534,751 " />
    <text
       id="text610"
       y="768.5684"
       x="188"
       textLength="341"
       lengthAdjust="spacingAndGlyphs"
       font-size="13"
       font-family="sans-serif"
       fill="#000000">Deserializatory są tworzone dla każdej wersji OpenApi</text>
    <!--MD5=[f6de4695cceba8a5637ebb4807aefd70]
class Deserializer.VersionedDeserializers-->
    <rect
       y="59"
       x="240.5"
       width="351"
       style="stroke: #A80036; stroke-width: 1.5;"
       id="Deserializer.VersionedDeserializers"
       height="93.1309"
       filter="url(#f138lrknsbzko4)"
       fill="#FEFECE" />
    <ellipse
       id="ellipse613"
       style="stroke: #A80036; stroke-width: 1.0;"
       ry="11"
       rx="11"
       fill="#ADD1B2"
       cy="78.1328"
       cx="345.25" />
    <path
       id="path615"
       d="M347.7231,84.2759 Q347.1421,84.5747 346.5029,84.7241 Q345.8638,84.8735 345.1582,84.8735 Q342.6514,84.8735 341.3315,83.2217 Q340.0117,81.5698 340.0117,78.4487 Q340.0117,75.3193 341.3315,73.6675 Q342.6514,72.0156 345.1582,72.0156 Q345.8638,72.0156 346.5112,72.165 Q347.1587,72.3145 347.7231,72.6133 L347.7231,75.3359 Q347.0923,74.7549 346.4988,74.4851 Q345.9053,74.2153 345.2744,74.2153 Q343.9297,74.2153 343.2449,75.282 Q342.5601,76.3486 342.5601,78.4487 Q342.5601,80.5405 343.2449,81.6072 Q343.9297,82.6738 345.2744,82.6738 Q345.9053,82.6738 346.4988,82.4041 Q347.0923,82.1343 347.7231,81.5532 Z " />
    <text
       id="text617"
       y="75.6016"
       x="400.75"
       textLength="63"
       lengthAdjust="spacingAndGlyphs"
       font-style="italic"
       font-size="12"
       font-family="sans-serif"
       fill="#000000">«singleton»</text>
    <text
       id="text619"
       y="89.7344"
       x="365.75"
       textLength="133"
       lengthAdjust="spacingAndGlyphs"
       font-size="12"
       font-family="sans-serif"
       fill="#000000">VersionedDeserializers</text>
    <line
       id="line621"
       y2="97.2656"
       y1="97.2656"
       x2="590.5"
       x1="241.5"
       style="stroke: #A80036; stroke-width: 1.5;" />
    <line
       id="line623"
       y2="105.2656"
       y1="105.2656"
       x2="590.5"
       x1="241.5"
       style="stroke: #A80036; stroke-width: 1.5;" />
    <ellipse
       id="ellipse625"
       style="stroke: #038048; stroke-width: 1.0;"
       ry="3"
       rx="3"
       fill="#84BE84"
       cy="116.2656"
       cx="251.5" />
    <text
       id="text627"
       y="119.9004"
       x="260.5"
       textLength="184"
       text-decoration="underline"
       lengthAdjust="spacingAndGlyphs"
       font-size="11"
       font-family="sans-serif"
       fill="#000000">RegisterFromAssembly(Assembly)</text>
    <ellipse
       id="ellipse629"
       style="stroke: #038048; stroke-width: 1.0;"
       ry="3"
       rx="3"
       fill="#84BE84"
       cy="129.2207"
       cx="251.5" />
    <text
       id="text631"
       y="132.8555"
       x="260.5"
       textLength="325"
       lengthAdjust="spacingAndGlyphs"
       font-size="11"
       font-family="sans-serif"
       fill="#000000">DeserializeFile(string, JsonSerializerSettings) : OpenApiModel</text>
    <ellipse
       id="ellipse633"
       style="stroke: #038048; stroke-width: 1.0;"
       ry="3"
       rx="3"
       fill="#84BE84"
       cy="142.1758"
       cx="251.5" />
    <text
       id="text635"
       y="145.8105"
       x="260.5"
       textLength="156"
       lengthAdjust="spacingAndGlyphs"
       font-size="11"
       font-family="sans-serif"
       fill="#000000">Register(string, IDeserializer)</text>
    <!--MD5=[2376d448e124e1119c0d257575154c20]
reverse link Deserializer.IDeserializer to Deserializer.Deserializer-->
    <path
       style="stroke: #A80036; stroke-width: 1.0; stroke-dasharray: 7.0,7.0;"
       id="Deserializer.IDeserializer&lt;-Deserializer.Deserializer"
       fill="none"
       d="M473.25,369.33 C473.25,369.33 473.25,409.67 473.25,409.67 " />
    <polygon
       id="polygon638"
       style="stroke: #A80036; stroke-width: 1.0;"
       points="466.25,369.33,473.25,349.33,480.25,369.33,466.25,369.33"
       fill="none" />
    <!--MD5=[2f45bc99ccffa8a3c7d7bf831cd7ed70]
link Deserializer.OpenApiModel to Deserializer.IDeserializer-->
    <path
       style="stroke: #A80036; stroke-width: 1.0;"
       id="Deserializer.OpenApiModel-Deserializer.IDeserializer"
       fill="none"
       d="M270.47,312 C306.85,312 346.75,312 382.28,312 " />
    <polygon
       transform="translate(0,-20)"
       id="polygon641"
       style="stroke:#000000;stroke-width:1"
       points="295.37,319.1553 289.37,322.1553 295.37,325.1553 "
       fill="#000000" />
    <text
       transform="translate(0,-20)"
       id="text643"
       y="325.56839"
       x="301.37"
       textLength="63"
       lengthAdjust="spacingAndGlyphs"
       font-size="13px"
       font-family="sans-serif"
       fill="#000000">Produkuje</text>
    <!--MD5=[533ab90e99283f4c5dd1918174c5b3f2]
reverse link Deserializer.Deserializer to Deserializer.Deserializer301-->
    <path
       style="stroke:#a80036;stroke-width:1"
       id="Deserializer.Deserializer&lt;-Deserializer.Deserializer301"
       fill="none"
       d="m 473,497.19 c 0,0 0,40.52 0,40.52" />
    <polygon
       transform="translate(28)"
       id="polygon646"
       style="stroke:#a80036;stroke-width:1"
       points="438,497.19 445,477.19 452,497.19 "
       fill="none" />
    <!--MD5=[a28074f6c64ebea08f684823317302c7]
reverse link Deserializer.VersionedDeserializers to Deserializer.IDeserializer-->
    <path
       style="stroke:#a80036;stroke-width:1"
       id="Deserializer.VersionedDeserializers&lt;-Deserializer.IDeserializer"
       fill="none"
       d="m 487,164.1 c 0,0 0,109.75 0,109.75" />
    <polygon
       id="polygon649"
       style="stroke: #A80036; stroke-width: 1.0;"
       points="487,152.1,483,158.1,487,164.1,491,158.1,487,152.1"
       fill="#FFFFFF" />
    <text
       transform="translate(-20)"
       id="text651"
       y="172.6275"
       x="488.84061"
       textLength="8"
       lengthAdjust="spacingAndGlyphs"
       font-size="13px"
       font-family="sans-serif"
       fill="#000000">1</text>
    <text
       id="text653"
       y="264.2229"
       x="462.9719"
       textLength="22"
       lengthAdjust="spacingAndGlyphs"
       font-size="13"
       font-family="sans-serif"
       fill="#000000">0..*</text>
    <!--MD5=[5a13c2a7aa502ab2690d943ea92af505]
@startuml Deserializer

skinparam linetype ortho

namespace Deserializer {
    
class OpenApiModel {
    +Endpoints() : IEnumerable<IEndpoint>
    +Schemas() : IEnumerable<ISchema>
}

interface IDeserializer {
    +Deserialize(string): OpenApiModel
    +SetSettings(JsonSerializerSettings)
}

class Deserializer<T> <<abstract>> {
    #GetConverters() : IList<JsonConverter>
}

class Deserializer301 {
    -MapSchemes(OpenApiModelBuilder, Dictionary<string, Schema>)
    -MapSecuritySchema(OpenApiModelBuilder, Dictionary<string, SecurityScheme>)
    -MapHeaders(OpenApiModelBuilder, Dictionary<string, Header>)
    -MapRequestBodies(OpenApiModelBuilder, Dictionary<string, Request>)
    -MapResponses(OpenApiModelBuilder, Dictionary<string, Response>)
    -MapParameters(OpenApiModelBuilder, Dictionary<string, Parameter>)
    -MapEndpoints(OpenApiModelBuilder, Dictionary<string, PathItem>)
    -{static} GetOperationMap(PathItem) : Dictionary<EndpointType, Operation>
}
note bottom : Deserializatory są tworzone dla każdej wersji OpenApi

class VersionedDeserializers <<singleton>> { 
    +{static} RegisterFromAssembly(Assembly)
    +DeserializeFile(string, JsonSerializerSettings) : OpenApiModel
    +Register(string, IDeserializer)
}


IDeserializer <|.. Deserializer
OpenApiModel -r- - IDeserializer : Produkuje <
Deserializer <|- - Deserializer301

VersionedDeserializers "1" o- - - "0..*" IDeserializer 

}
@enduml

PlantUML version 1.2020.10(Sun May 17 11:35:57 CEST 2020)
(GPL source distribution)
Java Runtime: Java(TM) SE Runtime Environment
JVM: Java HotSpot(TM) 64-Bit Server VM
Java Version: 1.8.0_231-b11
Operating System: Mac OS X
Default Encoding: UTF-8
Language: en
Country: GB
-->
  </g>
</svg>
